<?xml version="1.0" encoding="utf-8"?>
<!-- Generator: Adobe Illustrator 16.0.0, SVG Export Plug-In . SVG Version: 6.00 Build 0)  -->
<!DOCTYPE svg PUBLIC "-//W3C//DTD SVG 1.1//EN" "http://www.w3.org/Graphics/SVG/1.1/DTD/svg11.dtd">
<svg version="1.1" id="Layer_1" xmlns="http://www.w3.org/2000/svg" xmlns:xlink="http://www.w3.org/1999/xlink" x="0px" y="0px"
	 width="305px" height="305px" viewBox="0 0 305 305" enable-background="new 0 0 305 305" xml:space="preserve">
<g>
	<g>
		<polygon fill="#E5213D" points="205.339,151.927 153.674,8.285 100.888,151.927 152.713,151.927 153.514,151.927 		"/>
		<g>
			<polygon fill="#A7C957" points="115.587,179.572 196.629,249.817 291.062,98.666 			"/>
			<polygon fill="#2AA9E0" points="189.412,179.572 108.371,249.817 13.939,98.666 			"/>
			<polygon fill="#50B061" points="235.324,227.776 243.641,249.529 152.785,249.529 152.785,227.776 			"/>
			<polygon fill="#1569B1" points="71.594,227.776 63.278,249.529 154.135,249.529 154.135,227.776 			"/>
			<rect x="149.268" y="238.81" fill="#E52345" width="8.958" height="57.905"/>
			<polygon fill="#EF8036" points="114.693,218.277 201.333,218.927 201.274,37.504 			"/>
			<polygon fill="#C0202F" points="190.306,218.277 103.667,218.927 103.725,37.504 			"/>
			<polygon fill="#2C579C" points="210.693,225.97 129.433,256.029 67.823,85.387 			"/>
			<polygon fill="#6F412D" points="94.307,225.97 175.567,256.029 237.176,85.387 			"/>
			<polygon fill="#51B8A3" points="195.082,219.615 134.297,281.358 6.011,153.072 			"/>
			<polygon fill="#098B44" points="109.917,219.615 170.703,281.358 298.989,153.072 			"/>
		</g>
	</g>
	<g>
		<g>
			<g>
				<path fill-rule="evenodd" clip-rule="evenodd" fill="#FCFCFC" d="M133.385,196.564c1.976,9.749,1.919,18.278,0.14,25.769
					c-2.7,7.981-4.915,15.808,4.506,19.997c9.576,2.719,19.154,2.869,28.727-0.42c4.534-1.907,5.655-6.497,4.929-12.532
					c-3.07-8.929-4.674-18.347-2.11-29.151c2.169-11.802,2.205-23.733,0.397-35.77c-1.089-7.251-2.429-10.731-4.748-17.402
					c-1.976-5.676-3.491-11.494-4.469-17.48c-0.64-3.91-0.738-6.304-0.617-10.216c1.747-2.162,1.635-4.633,0-7.359
					c0.48-0.102,0.986-0.152,1.129-0.88c0.497-3.924-2.05-5.158-4.471-5.28c-3.055,0-6.104,0-9.155,0
					c-4.658-0.011-5.221,1.582-5.526,3.273c-0.23,1.808,0.098,2.759,1.125,2.958c-1.521,2.487-2.067,4.947-0.018,7.341
					C145.929,144.077,124.855,157.347,133.385,196.564z"/>
			</g>
			<g>
				<path fill-rule="evenodd" clip-rule="evenodd" fill="#FCFCFC" d="M158.633,79.022c-3.577,0-6.478,2.74-6.478,6.119
					s2.901,6.119,6.478,6.119c3.58,0,6.479-2.74,6.479-6.119S162.213,79.022,158.633,79.022z M162.221,82.913
					c-0.334,0.32-0.884,0.319-1.222,0.001c-0.614-0.58-1.431-0.899-2.299-0.899c-0.978,0-1.894,0.409-2.516,1.123
					c-0.17,0.197-0.417,0.298-0.668,0.298c-0.191,0-0.386-0.061-0.548-0.186c-0.368-0.286-0.421-0.8-0.117-1.149
					c0.949-1.092,2.353-1.719,3.849-1.719c1.33,0,2.578,0.489,3.521,1.377C162.559,82.078,162.559,82.595,162.221,82.913z"/>
				<path fill-rule="evenodd" clip-rule="evenodd" fill="#FCFCFC" d="M146.315,85.7c-2.479,0-4.488,1.898-4.488,4.24
					c0,2.341,2.01,4.24,4.488,4.24c2.479,0,4.489-1.899,4.489-4.24C150.805,87.598,148.795,85.7,146.315,85.7z M148.801,88.396
					c-0.232,0.221-0.611,0.221-0.847,0c-0.425-0.401-0.991-0.622-1.592-0.622c-0.677,0-1.312,0.283-1.742,0.778
					c-0.119,0.135-0.29,0.206-0.463,0.206c-0.133,0-0.267-0.042-0.38-0.128c-0.254-0.199-0.292-0.555-0.082-0.796
					c0.657-0.757,1.629-1.192,2.667-1.192c0.921,0,1.787,0.34,2.439,0.956C149.035,87.818,149.035,88.175,148.801,88.396z"/>
				<path fill-rule="evenodd" clip-rule="evenodd" fill="#FCFCFC" d="M158.313,69.03c-2.126,0-3.849,1.627-3.849,3.634
					c0,2.008,1.723,3.636,3.849,3.636s3.849-1.627,3.849-3.636C162.162,70.657,160.439,69.03,158.313,69.03z M160.443,71.34
					c-0.198,0.19-0.523,0.19-0.725,0.001c-0.365-0.345-0.851-0.535-1.366-0.535c-0.58,0-1.126,0.244-1.494,0.667
					c-0.101,0.118-0.248,0.178-0.396,0.178c-0.115,0-0.23-0.036-0.326-0.109c-0.22-0.171-0.251-0.476-0.07-0.683
					c0.564-0.649,1.398-1.021,2.286-1.021c0.79,0,1.534,0.29,2.091,0.818C160.646,70.845,160.646,71.151,160.443,71.34z"/>
				<path fill-rule="evenodd" clip-rule="evenodd" fill="#FCFCFC" d="M154.953,92.74c-1.938,0-3.509,1.37-3.509,3.058
					c0,1.687,1.572,3.057,3.509,3.057c1.939,0,3.511-1.37,3.511-3.057C158.464,94.109,156.893,92.74,154.953,92.74z"/>
				<path fill-rule="evenodd" clip-rule="evenodd" fill="#FCFCFC" d="M149.514,99.298c-1.228,0-2.224,0.868-2.224,1.938
					c0,1.069,0.997,1.938,2.224,1.938c1.229,0,2.225-0.868,2.225-1.938C151.739,100.166,150.743,99.298,149.514,99.298z"/>
				<path fill-rule="evenodd" clip-rule="evenodd" fill="#FCFCFC" d="M148.716,74.185c-1.634,0-2.958,1.153-2.958,2.577
					s1.324,2.577,2.958,2.577s2.958-1.153,2.958-2.577S150.35,74.185,148.716,74.185z"/>
				<path fill-rule="evenodd" clip-rule="evenodd" fill="#FCFCFC" d="M153.674,64.107c-1.228,0-2.224,0.867-2.224,1.938
					c0,1.069,0.997,1.936,2.224,1.936c1.229,0,2.226-0.867,2.226-1.936C155.899,64.975,154.903,64.107,153.674,64.107z"/>
				<path fill-rule="evenodd" clip-rule="evenodd" fill="#FCFCFC" d="M160.393,59.468c-1.024,0-1.856,0.724-1.856,1.618
					c0,0.893,0.832,1.616,1.856,1.616c1.026,0,1.858-0.723,1.858-1.616C162.251,60.192,161.419,59.468,160.393,59.468z"/>
			</g>
		</g>
		<g>
			<g>
				<g>
					<path fill-rule="evenodd" clip-rule="evenodd" fill="#D01317" d="M144.51,183.598c-2.021-1.766-4.947-2.078-8.101-1.146
						c-3.13,0.681-3.374,0.87-4.081-0.879c-0.22-0.833-0.289-1.918-0.299-3.445c0.042-2.475,0.161-4.958,1.333-8.255
						c0.667-1.721,1.455-3.295,2.581-4.1c0.879-0.545,0.733,0.565,0.609,0.742c-0.115,0.021-0.304,0.087-0.455,0.266
						c-0.127,0.169-0.468,0.697-0.521,1.33c-0.083,0.975,0.528,0.683,0.839,0.095c0.33-0.653,0.861-1.913,0.593-2.905
						c-0.118-0.348-0.348-0.552-0.642-0.564c-1.019,0.151-1.905,1.161-2.584,2.199c-1.529,2.527-1.915,5.476-1.928,8.115
						c-0.007,1.642,0.035,3.682,0.084,5.691c0.051,1.415,0.27,2.544,0.915,2.813c0.428,0.163,1.163,0.033,1.766-0.073
						c0.356-0.002,4.345-1.578,6.438,2.422c0.002,0.006,0.439-1.299,1.89-1.228c1.179-0.053,3.01,0.626,4.379,1.817
						C146.861,185.703,145.563,184.476,144.51,183.598L144.51,183.598z"/>
					<path fill-rule="evenodd" clip-rule="evenodd" fill="#D01317" d="M136.702,169.682c-0.739-0.718-2.227,1.044-3.058,3.551
						c-0.765,2.264-0.896,4.569-0.592,5.766c0.447,1.46,1.421-0.3,1.955-1.435c0.021-0.042,0.042-0.084,0.064-0.127
						c0.346-0.681,0.636-1.537,0.936-2.383c-0.002,0.001,0.279-0.771,0.294-0.809c0.176-0.056,0.39-0.146,0.643-0.266
						c-0.02,0.034-0.943,2.565-0.807,3.792c0.042,0.384,0.039,1.749,0.911,2.255c1.169,0.426,2.164-0.925,3.111-2.229
						c0,0,0.162-0.217,0.255-0.338c-0.022,0.131-0.05,0.308-0.05,0.308c-0.37,1.943,0.194,2.36,0.544,2.531
						c1.048,0.491,2.343-1.569,2.354-1.581c-0.024,0.669-0.116,1.22,0.438,1.677c0.52,0.257,1.042-0.077,1.445-0.412
						c1.447-1.266,2.67-3.383,3.668-5.194c-0.212,0-0.424,0-0.636,0.001c-0.009,0.02-1.561,2.821-2.532,3.403
						c-0.001,0.001-0.179,0.105-0.28,0.014c-0.131-0.141-0.082-0.448-0.006-0.649c-0.045,0.021,3.86-8.481,3.879-8.448
						c-0.612,0.006-1.222,0.014-1.827,0.024c0,0-0.205,0.419-0.221,0.447c-0.011-0.011-0.039-0.072-0.059-0.106
						c-1.092-1.901-3.661,1.143-5.417,4.574c-0.679,1.318-1.5,2.776-2.292,3.774c-0.01,0.012-1.153,1.504-1.638,0.364
						c-0.182-0.47-0.141-1.145-0.048-1.588c0.517-2.362,1.543-4.606,2.803-6.003c0.354-0.385,0.742-0.515,0.929-0.364
						c0.179,0.137,0.201,0.496,0.081,0.75c-0.295,0-0.531,0.13-0.724,0.399c-0.381,0.55-0.513,1.063-0.402,1.544
						c0.545,1.115,1.743-1.142,1.723-2.498c-0.009-0.486-0.192-0.934-0.474-1.139c-0.415-0.315-1.052-0.185-1.459,0.107
						c-0.548,0.314-1.395,1.335-1.864,2.106c-0.607,0.973-1.538,2.034-1.799,1.925C136.637,173.049,137.446,170.505,136.702,169.682
						L136.702,169.682z M144.023,173.133c0.337-0.613,1.356-2.263,1.609-2.541c0.841-0.938,1.176-0.538,1.2-0.25
						c-0.803,1.767-1.735,3.821-2.571,5.63c0.001-0.009-0.262,0.515-0.261,0.514c-0.366,0.731-0.729,1.354-1.312,1.768
						c-0.084,0.035-0.221,0.042-0.314-0.052c-0.112-0.099-0.157-0.261-0.147-0.431C142.26,177.219,142.644,175.538,144.023,173.133
						L144.023,173.133z M135.832,174.27c0,0-0.012,0.054-0.017,0.074c-0.175,0.484-0.342,0.962-0.502,1.434
						c-0.291,0.699-0.629,1.549-1.014,1.919c-0.117,0.063-0.271,0.097-0.352-0.114c-0.171-0.432-0.098-0.996-0.036-1.458
						c0.008-0.056,0.016-0.11,0.023-0.166c0.186-1.125,0.523-2.146,0.896-3.125c0.004-0.006,0.014-0.017,0.019-0.017
						c0,0.01,0.002,0.01,0.002,0.02c0.205,0.784,0.643,1.152,0.996,1.325c0.003,0,0.005,0.004,0.005,0.014
						C135.852,174.195,135.846,174.219,135.832,174.27L135.832,174.27z M136.354,172.54c-0.004,0.016-0.254,0.926-0.252,0.925
						c-0.035,0.052-0.087,0.027-0.147,0.005c-0.034-0.009-0.068-0.017-0.103-0.025c-0.322-0.158-0.542-0.506-0.604-0.931
						c-0.08-0.821,0.34-1.509,0.536-1.768c0.182-0.229,0.472-0.37,0.634-0.171c0.098,0.192,0.129,0.446,0.121,0.732
						C136.529,171.692,136.443,172.133,136.354,172.54L136.354,172.54z"/>
					<path fill-rule="evenodd" clip-rule="evenodd" fill="#D01317" d="M157.898,175.338c-0.166-0.47-0.568-0.778-1.004-0.744
						c-1.416,0.156-2.847,1.669-3.605,3.822c-0.397,1.104-0.617,2.01-0.765,3.42c0.454-0.635,1.387-1.696,2.431-2.291
						c0,0.002,0.153-1.374,0.877-2.615c0.271-0.514,0.816-1.337,1.411-1.117c0.521,0.22,0.333,2.067-0.385,3.854
						c-0.533,1.315-1.349,2.618-2.169,3.506c-0.724,0.751-1.788,1.643-2.711,0.978c-0.587-0.41-0.889-1.28-0.822-2.43
						c0.277-3.268,1.537-6.218,3.276-9.463c1.784-3.022,3.667-5.932,5.925-7.177c0.459-0.264,0.885-0.286,1.26-0.061
						c0.018-0.002-2.023,1.263-3.105,4.306c-0.268,0.769-0.652,1.828-0.234,2.79c0.215,0.5,0.587,0.547,0.883,0.525
						c1.36-0.397,2.159-2.021,2.76-3.433c0.344-1.083,0.618-2.124,0.547-3.284c-0.008-0.141-0.026-0.33-0.044-0.469
						c0.553-0.337,1.694,0.535,1.688,0.533c0.906,0.532,2.607,2.762,3.05,3.202c0.207-0.44,0.516-1.074,0.676-1.369
						c-0.098-0.134-0.198-0.268-0.301-0.402c-0.489-0.637-1.063-1.27-1.677-1.895c-1.396-1.407-2.641-1.221-3.275-0.983
						c-0.252,0.085-0.487,0.167-0.487,0.167c-0.549-0.785-1.392-0.816-2.031-0.682c-2.276,0.609-4.58,2.594-7.239,6.607
						c-1.954,3.146-3.204,5.966-3.834,8.643c-0.493,1.812-0.602,4.398,0.604,5.872c1.025,1.251,2.355,0.971,3.31,0.516
						c2.06-1.197,3.955-3.894,4.889-7.051C158.023,177.675,158.269,176.351,157.898,175.338L157.898,175.338z M162.001,165.987
						c0.001,3.504-2.169,5.734-2.752,5.901c-0.342,0.088-0.934-0.139-0.436-1.738c0.73-2.151,1.939-3.819,3.144-4.534
						C161.998,165.765,162.001,165.86,162.001,165.987L162.001,165.987z"/>
					<path fill-rule="evenodd" clip-rule="evenodd" fill="#D01317" d="M169.986,168.443c-0.197,0.408-0.543,0.68-1.246,0.286
						c-0.163,0.449-0.341,0.935-0.516,1.46c1.193,0.805,1.759-0.228,1.868-1.045c0.136-0.851,0.054-1.915,0.066-1.919
						C170.148,167.226,170.216,167.935,169.986,168.443L169.986,168.443z"/>
					<path fill-rule="evenodd" clip-rule="evenodd" fill="#D01317" d="M152.299,169.104c-0.583-0.004-1.167-0.005-1.751-0.003
						c-0.33,0.682-0.663,1.37-0.995,2.063c0.585-0.003,1.173-0.004,1.76-0.003C151.644,170.469,151.973,169.782,152.299,169.104
						L152.299,169.104z"/>
					<path fill-rule="evenodd" clip-rule="evenodd" fill="#D01317" d="M168.677,182.232c-0.089,0.157-0.197,0.094-0.135-0.208
						c0.171-0.774,0.624-2.392,0.613-2.386c0.399-1.671,0.684-3.274,0.86-4.758c-0.122-0.003-0.281-0.005-0.475-0.007
						c-0.027,0.154-0.089,0.476-0.089,0.476c-0.027-0.135-0.115-0.445-0.153-0.517c-0.16-0.284-0.427-0.156-0.632,0.109
						c-0.888,1.183-1.848,3.776-2.701,5.841c0.013-0.002-0.929,2.29-1.446,2.525c-0.386,0.104-0.302-0.677-0.274-0.865
						c0.226-1.327,0.626-2.641,0.994-3.816c0.708-0.804,1.448-1.825,2.032-2.879c1.291-2.306,1.866-4.479,1.937-4.95
						c0,0-0.101,0.028-0.236,0.007c-0.455,2.069-2.487,5.836-3.297,6.482c0.402-1.312,2.313-7.193,3.092-9.135
						c0.046-0.105,0.091-0.21,0.135-0.312c0.205-0.478,0.378-0.924,0.521-0.916c0.015,0.006,0.035,0.023,0.06,0.147
						c0.038,0.429,0.008,0.711-0.029,1.043c-0.018,0.162-0.036,0.326-0.056,0.491c0.001,0,0.122-0.011,0.188-0.044
						c0.056-0.476,0.104-0.986,0.024-1.692c-0.027-0.227-0.087-0.431-0.158-0.521c-0.23-0.293-0.482,0.046-0.72,0.36
						c-0.003,0.004-0.006,0.007-0.009,0.01c-1.198,1.878-2.925,5.951-5.05,12.179c-0.148,0.171-0.716,0.397-0.813,0.307
						c0.218-0.605,0.488-1.418,0.624-2.29c0.023-0.248,0.045-0.505,0.047-0.755c0.003-0.533-0.081-1.035-0.414-1.388
						c-0.386-0.283-0.886-0.155-1.229,0.062c-1.53,0.879-2.812,3.16-3.758,5.027c-0.512,1.179-1.038,2.442-1.213,3.827
						c-0.128,1.083,0.044,1.743,0.521,2.051c0.488,0.279,1.124-0.088,1.374-0.26c1.699-1.189,2.891-3.474,3.781-5.568
						c0.029-0.007,0.483-0.054,0.813-0.197c0.003-0.001,0.006-0.001,0.011,0.004c-0.02,0.093-0.216,0.837-0.217,0.837
						c-0.591,2.173-0.92,3.611-0.491,4.356c0.604,1.042,1.774-0.298,2.665-1.975c-0.295,1.88,0.286,2.016,0.731,1.78
						c0.519-0.335,1.095-1.321,1.341-1.812c-0.109,0.534-0.159,1.433,0.209,1.395c0.245,0.001,0.444-0.306,0.657-0.6
						c0.807-1.093,1.468-3.984,1.562-4.719c-0.047,0.022-0.098,0.045-0.151,0.067C169.514,180.051,169.174,181.448,168.677,182.232
						L168.677,182.232z M159.075,183.475c-0.082-0.159-0.101-0.353-0.101-0.547c0.032-1.209,1.122-3.483,1.835-4.753
						c0.004,0,0.004,0,0.004,0c0.278,0.921,0.916,1.396,1.29,1.604C161.603,181.28,159.777,184.504,159.075,183.475L159.075,183.475
						z M162.388,179.118c-0.045,0.046-0.834-0.286-0.983-1.332c-0.12-0.899,0.338-1.619,0.765-1.979
						c0.185-0.202,0.458-0.273,0.654-0.177c0.178,0.176,0.224,0.486,0.221,0.826c-0.002,0.204-0.02,0.419-0.042,0.612
						c0,0.001-0.002,0.038-0.002,0.041C162.86,177.812,162.649,178.498,162.388,179.118L162.388,179.118z M167.527,182.051
						c-0.035,0.062-0.071,0.124-0.108,0.186c-0.156,0.268-0.323,0.555-0.502,0.472c-0.048-0.022-0.076-0.136-0.078-0.228
						c0.038-0.68,0.248-1.351,0.439-1.997c0.018-0.057,0.034-0.112,0.052-0.169c0.527-1.521,1.083-3.283,1.657-4.439
						c0.095-0.177,0.194-0.322,0.291-0.215c0.021,0.058,0.046,0.156,0.045,0.254c-0.001,0.034-0.011,0.115-0.016,0.146
						c-0.145,0.635-0.302,1.314-0.471,1.983C168.505,179.356,168.101,180.763,167.527,182.051L167.527,182.051z"/>
					<g>
						<g>
							<path fill="#D01317" d="M170.024,182.047c-0.002-0.055-0.009-0.088-0.022-0.106c0.02-0.054,0.034-0.129,0.046-0.223
								c0.011-0.092,0.018-0.184,0.022-0.271c0.003-0.071,0.005-0.131-0.004-0.315c-0.004-0.052-0.012-0.082-0.022-0.098
								c-0.011-0.014-0.026-0.013-0.05,0.011c-0.057,0.057-0.123,0.112-0.198,0.167c-0.034,0.635-0.073,1.265-0.117,1.888
								c0.033-0.028,0.064-0.058,0.095-0.086c0.016-0.242,0.032-0.485,0.047-0.73c0.031-0.028,0.061-0.057,0.088-0.086
								c0.023-0.024,0.037-0.023,0.043,0.005c0.005,0.031,0.005,0.105-0.002,0.222c-0.003,0.057-0.006,0.113-0.01,0.17
								c-0.005,0.086-0.011,0.171-0.017,0.257c0.024-0.033,0.047-0.065,0.068-0.099c0-0.023,0.016-0.23,0.027-0.437
								C170.025,182.189,170.027,182.1,170.024,182.047z M169.973,181.811c-0.009,0.027-0.021,0.053-0.039,0.071
								c-0.029,0.031-0.061,0.062-0.095,0.091c0.01-0.168,0.02-0.338,0.028-0.507c0.034-0.028,0.065-0.058,0.095-0.087
								c0.017-0.017,0.026-0.013,0.034-0.003c0.012,0.026,0.014,0.093,0.008,0.206C169.999,181.685,169.989,181.762,169.973,181.811
								z"/>
						</g>
						<path fill="#D01317" d="M169.824,183.442c-0.187,0.216-0.363-0.287-0.305-1.126c0.055-0.838,0.309-1.636,0.471-1.773
							c0.164-0.139,0.187,0.364,0.156,1.124C170.114,182.428,170.015,183.227,169.824,183.442z M169.976,180.845
							c-0.13,0.117-0.319,0.748-0.361,1.409c-0.045,0.66,0.084,1.062,0.23,0.895c0.148-0.166,0.241-0.8,0.269-1.412
							C170.141,181.127,170.107,180.728,169.976,180.845z"/>
					</g>
				</g>
			</g>
		</g>
	</g>
</g>
</svg>
