<?xml version="1.0" encoding="utf-8"?>
<!-- Generator: Adobe Illustrator 16.0.0, SVG Export Plug-In . SVG Version: 6.00 Build 0)  -->
<!DOCTYPE svg PUBLIC "-//W3C//DTD SVG 1.1//EN" "http://www.w3.org/Graphics/SVG/1.1/DTD/svg11.dtd">
<svg version="1.1" id="Layer_1" xmlns="http://www.w3.org/2000/svg" xmlns:xlink="http://www.w3.org/1999/xlink" x="0px" y="0px"
	 width="255px" height="249px" viewBox="0 0 255 249" enable-background="new 0 0 255 249" xml:space="preserve">
<g>
	<g>
		<circle fill="#D10000" cx="127.5" cy="124.5" r="99.293"/>
		<path fill="#BE1622" d="M238.223,149.777c1.918-8.438,11.511-16.258,11.511-25.277c0-9.02-9.593-16.839-11.511-25.276
			c-1.98-8.714,3.223-19.91-0.571-27.771c-3.854-7.991-15.89-10.883-21.371-17.747c-5.507-6.897-5.669-19.267-12.565-24.774
			c-6.864-5.481-18.95-2.905-26.941-6.76c-7.862-3.792-13.357-14.886-22.072-16.866c-8.437-1.918-18.182,5.647-27.201,5.647
			s-18.765-7.566-27.202-5.647c-8.714,1.98-14.211,13.073-22.072,16.866c-7.99,3.855-20.077,1.279-26.94,6.759
			c-6.896,5.508-7.059,17.877-12.566,24.774c-5.48,6.864-17.516,9.756-21.371,17.746c-3.793,7.862,1.409,19.058-0.571,27.772
			c-1.919,8.437-11.51,16.257-11.51,25.276c0,9.019,9.591,16.84,11.51,25.277c1.98,8.713-3.222,19.91,0.571,27.771
			c3.855,7.99,15.891,10.883,21.371,17.746c5.508,6.897,5.67,19.267,12.566,24.775c6.863,5.481,18.95,2.904,26.94,6.761
			c7.861,3.791,13.358,14.885,22.072,16.865c8.438,1.917,18.183-5.648,27.202-5.648s18.765,7.565,27.201,5.648
			c8.715-1.98,14.21-13.075,22.071-16.865c7.992-3.857,20.078-1.28,26.942-6.761c6.896-5.507,7.058-17.877,12.564-24.774
			c5.482-6.864,17.518-9.757,21.372-17.747C241.445,169.687,236.242,158.49,238.223,149.777z M127.5,233.271
			c-59.977,0-108.771-48.795-108.771-108.771c0-59.976,48.794-108.77,108.771-108.77S236.271,64.524,236.271,124.5
			C236.271,184.476,187.477,233.271,127.5,233.271z"/>
		<path fill="#D10000" d="M127.5,16.711c-59.435,0-107.789,48.354-107.789,107.788c0,59.435,48.354,107.789,107.789,107.789
			c59.436,0,107.789-48.354,107.789-107.789C235.289,65.065,186.936,16.711,127.5,16.711z M127.5,228.302
			c-57.328,0-103.803-46.475-103.803-103.803c0-57.328,46.475-103.802,103.803-103.802c57.327,0,103.803,46.475,103.803,103.802
			C231.303,181.828,184.827,228.302,127.5,228.302z"/>
	</g>
	<g display="none">
		<path display="inline" fill="#FFFFFF" d="M61.384,131.66v19.065H50.995V97.649H69.44c5.297,0,9.478,1.565,12.54,4.697
			c3.062,3.131,4.593,7.234,4.593,12.308c0,5.099-1.537,9.208-4.611,12.327s-7.249,4.679-12.521,4.679H61.384z M61.384,123.384
			h8.057c2.211,0,3.9-0.815,5.066-2.447c1.167-1.632,1.75-3.702,1.75-6.21c0-2.533-0.578-4.633-1.731-6.301
			c-1.154-1.667-2.85-2.502-5.085-2.502h-8.057V123.384z"/>
		<path display="inline" fill="#FFFFFF" d="M103.597,142.45h19.393v8.275H93.207V97.649h10.39V142.45z"/>
		<path display="inline" fill="#FFFFFF" d="M152.734,139.387h-13.997l-2.844,11.337h-10.462l14.946-53.076h10.789l14.909,53.076
			h-10.461L152.734,139.387z M140.852,131.113h9.77l-4.776-18.773h-0.218L140.852,131.113z"/>
		<path display="inline" fill="#FFFFFF" d="M183.101,120.396h0.219l8.857-22.747h11.265l-15.165,34.193v18.883h-10.352v-19.539
			l-14.91-33.537h11.338L183.101,120.396z"/>
	</g>
</g>
</svg>
